PathFileType	4	(X/Y/Z)	C:/Users/beibeiliu/ov580/test_trc\sequence.35_training_dense_left.trc
DataRate	CameraRate	NumFrames	NumMarkers	Units	OrigDataRate	OrigDataStartFrame	OrigNumFrames
120	120	22	19	mm	120	29	57
Frame#	Time	ThumbCMC			ThumbMCP			ThumbIP			ThumbTip			IndexMCP			IndexPIP			IndexTip			MiddleMCP			MiddlePIP			MiddleTip			RingMCP			RingPIP			RingTip			PinkyMCP			PinkyPIP			PinkyTip			BackHand1			BackHand2			BackHand3	
		X0	Y0	Z0	X1	Y1	Z1	X2	Y2	Z2	X3	Y3	Z3	X4	Y4	Z4	X5	Y5	Z5	X6	Y6	Z6	X7	Y7	Z7	X8	Y8	Z8	X9	Y9	Z9	X10	Y10	Z10	X11	Y11	Z11	X12	Y12	Z12	X13	Y13	Z13	X14	Y14	Z14	X15	Y15	Z15	X16	Y16	Z16	X17	Y17	Z17	X18	Y18	Z18	
28	0.233333	-148.749	27.752	126.689	-128.727	15.9496	108.763	-118.824	13.3626	80.2444	-130.159	7.1472	57.8646	-140.817	51.2123	57.9523	-124.953	30.4769	44.2889	-133.325	10.6563	74.7044	-155.736	45.1065	48.0936	-137.07	19.9531	35.2268	-143.64	3.3967	63.9736	-171.167	32.2091	39.3547	-150.505	10.6754	33.4428	-150.525	-2.7106	62.0275	-188.848	20.3639	45.9945	-167.595	1.92578	32.9871	-156.196	-13.2308	58.9645	-203.029	35.2832	85.8346	-212.619	28.3386	119.129	-183.346	46.9899	114.418	
29	0.241667	-149.518	29.6876	129.199	-128.162	21.1	106.056	-112.962	18.7788	81.0467	-126.61	12.4566	54.6301	-141.904	56.6502	59.8785	-122.021	36.6359	45.1512	-127.281	17.3993	74.7554	-157.317	50.7562	44.1725	-138.155	27.2037	33.7775	-141.893	10.3492	68.038	-170.588	39.4778	40.9394	-151.955	17.9664	32.3199	-152.916	1.17581	60.4752	-186.462	27.1296	46.661	-165.595	9.98293	31.9012	-154.613	-4.81401	57.7165	-199.112	41.1645	92.2166	-208.769	33.0742	117.073	-180.602	51.9475	116.218	
30	0.25	-148.593	30.1522	123.429	-123.06	18.7565	103.965	-117.625	13.5471	80.3934	-130.732	10.1963	54.2453	-131.54	56.3818	56.6017	-122.656	33.8696	41.8412	-131.113	13.2103	72.3603	-154.652	51.1903	45.5928	-138.853	25.3396	30.8946	-144.31	7.52798	61.1695	-168.742	43.6519	37.9394	-154.285	16.6814	29.1367	-151.129	4.83125	59.5241	-186.133	31.6202	42.6897	-169.959	13.1888	29.2594	-156.639	-6.97004	56.1877	-199.137	47.9446	86.6167	-208.311	39.3492	116.425	-176.752	54.9105	113.399	
31	0.258333	-139.404	19.9535	127.154	-116.307	1.7336	107.088	-113.028	-3.46591	82.5327	-124.995	-6.90772	55.3085	-123.123	37.4549	53.8226	-113.769	12.9585	42.351	-124.295	-2.90905	71.9453	-139.58	36.6279	41.7001	-132.689	7.93655	32.8533	-138.91	-6.7493	65.8459	-162.691	32.1713	39.5905	-151.103	8.18416	28.1722	-151.098	-8.75826	58.9698	-182.397	25.5539	45.427	-168.096	1.36231	29.7914	-160.068	-17.1008	52.0215	-184.922	46.5029	88.5953	-193.971	41.6294	118.807	-157.03	48.428	113.434	
32	0.266667	-125.122	-0.900701	132.233	-109.016	-23.2564	116.685	-104.113	-35.688	90.7271	-123.522	-35.2387	68.2978	-106.608	3.90892	62.8743	-107.564	-24.8602	49.6364	-120.811	-30.0008	80.5076	-127.115	4.88384	48.2052	-125.959	-25.762	38.3598	-134.295	-31.9861	74.1299	-144.627	6.0071	44.8641	-144.025	-22.5035	34.6348	-147.787	-33.8834	66.7413	-168.738	4.19417	48.7002	-158	-21.6512	38.8147	-156.093	-38.6281	67.2029	-164.387	30.4446	89.2267	-173.087	32.4755	120.737	-142.25	28.4348	114.071	
33	0.275	-111.004	-13.0001	144.67	-97.4332	-39.5789	129.828	-95.2153	-55.8316	103.01	-112.951	-57.1855	85.3305	-97.3667	-22.7939	71.0211	-99.5152	-51.7123	63.1841	-110.135	-49.0431	95.4113	-110.282	-24.6308	57.1074	-115.014	-54.0352	54.5566	-125.382	-52.7018	88.8811	-129.324	-22.6376	52.8275	-132.603	-50.508	50.8643	-138.898	-52.4791	85.4627	-152.519	-20.7469	54.223	-147.132	-48.2238	54.7645	-150.316	-59.8671	84.2825	-144.286	13.1136	93.9852	-154.952	22.1833	118.707	-124.177	15.1205	117.066	
34	0.283333	-106.691	-0.900394	148.155	-85.8846	-27.3501	142.661	-80.0231	-45.1456	121.654	-96.5671	-54.6188	99.6304	-83.7406	-20.069	80.3073	-82.1023	-51.8143	79.2546	-94.5592	-48.1594	106.3	-95.9275	-29.1597	64.9669	-97.3145	-59.6948	72.0832	-108.879	-47.8388	105.247	-117.994	-31.5773	60.8496	-110.608	-61.481	69.3427	-121.454	-54.9457	101.648	-140.53	-32.6073	66.1412	-128.3	-61.8943	71.7279	-128.965	-60.86	103.458	-139.321	8.25494	93.7461	-155.654	20.8983	118.734	-122.185	17.9853	116.002	
35	0.291667	-112.603	25.0463	144.616	-83.1919	7.30152	138.013	-71.5126	-9.77796	123.233	-81.6198	-29.5254	106.012	-79.3169	5.21508	77.1688	-62.188	-21.3026	85.011	-78.1259	-20.3452	110.919	-90.8156	-13.7416	64.24	-75.855	-36.1002	79.3834	-91.5326	-27.0741	110.468	-106.713	-24.7912	63.3505	-89.4015	-46.8753	79.4266	-100.589	-38.5138	107.851	-121.768	-35.2754	67.2011	-104.36	-53.0416	84.7055	-111.521	-46.681	112.869	-145.639	8.02795	85.1616	-166.043	17.9	108.499	-134.286	29.0965	110.364	
36	0.3	-131.906	51.318	130.394	-98.4699	49.2008	126.199	-77.9976	37.6729	115.184	-72.0514	10.9286	101.418	-91.129	31.6225	67.5724	-64.7276	21.1094	74.6336	-78.7145	19.9713	105.992	-91.9548	14.1366	61.2052	-65.2407	5.74272	75.3002	-85.8442	5.20094	106.897	-99.3157	-5.38322	64.1854	-73.4602	-12.0881	78.4619	-90.0031	-2.057	110.439	-104.326	-19.6418	72.4829	-83.1849	-21.4195	89.546	-96.9861	-13.1731	118.335	-151.287	2.8681	83.6149	-171.461	8.76551	102.477	-151.371	34.1773	98.6311	
37	0.308333	-154.258	55.9022	115.828	-125.736	71.7486	109.154	-102.606	70.2269	100.619	-84.5018	46.9094	92.8587	-106.062	47.8222	54.818	-80.7345	54.9836	65.6977	-95.2793	56.3061	95.2955	-101.599	27.9798	55.7941	-73.6674	36.9804	68.2262	-92.3492	35.3351	99.12	-96.7988	9.20544	61.9392	-71.9543	24.4166	76.975	-91.338	25.4808	107.086	-98.9663	-6.9937	74.4583	-74.1855	6.94549	87.3485	-88.5584	20.3212	110.921	-148.922	0.794184	86.0715	-167.528	-7.48707	105.385	-163.393	29.7578	90.3508	
38	0.316667	-174.837	39.3525	109.37	-158.519	68.3933	97.3924	-134.788	74.1813	81.8593	-112.851	57.113	81.8031	-135.753	40.2581	46.7443	-113.677	63.2961	48.8496	-122.627	59.6996	81.221	-121.532	28.7113	46.6011	-96.8441	48.1792	54.5379	-114.391	45.1966	88.4666	-107.315	14.8664	54.9014	-87.687	36.8674	62.4945	-102.833	41.6575	92.5153	-99.9433	1.8803	70.7826	-81.7023	23.3499	75.9271	-101.784	34.6951	103.402	-143.943	-12.7163	90.6238	-162.446	-17.5786	110.884	-174.3	8.26385	90.5321	
39	0.325	-191.471	10.6948	109.58	-185.146	36.3421	92.8607	-166.008	47.8859	68.9007	-136.6	36.8257	66.3005	-158.719	12.1088	38.761	-146.385	35.8162	34.9671	-155.113	40.3813	70.0258	-139.195	2.35927	39.5818	-126.678	30.616	42.2416	-136.067	32.2026	74.6927	-127.322	-4.70302	49.963	-113.355	23.1124	49.2014	-125.744	30.6806	81.3568	-112.291	-11.4516	64.4808	-103.35	15.4262	60.9051	-120.1	28.268	86.3275	-151.413	-32.2916	93.0354	-159.147	-38.4216	119.5	-184.152	-20.9197	98.3275	
40	0.333333	-212.458	-12.5921	111.336	-206.685	8.3795	89.0634	-195.208	17.829	63.9674	-166.828	12.1267	54.2705	-184.585	-23.6656	38.778	-177.312	2.77168	31.3123	-178.568	11.6527	63.0927	-166.34	-29.8927	38.4505	-156.754	-1.82923	31.292	-166.958	8.63099	65.1845	-148.26	-34.7534	47.0191	-141.289	-6.19247	37.276	-153.152	7.58891	68.8722	-136.37	-37.1837	62.7246	-126.674	-11.6835	48.8049	-141.364	11.6345	66.515	-160.542	-56.5405	94.313	-169.462	-59.4515	124.727	-195.601	-50.3167	104.664	
41	0.341667	-229.931	-25.278	115.078	-224.717	-4.20372	93.9324	-215.92	4.31105	61.6294	-190.615	-6.16697	51.5439	-214.923	-42.3161	43.1997	-204.889	-19.3503	27.3651	-199.887	-4.60478	57.8515	-193.724	-50.1227	37.2662	-184.937	-22.1502	26.6616	-184.046	-8.95915	61.7989	-174.228	-55.852	45.587	-170.262	-28.2321	31.4428	-175.835	-9.19602	59.1587	-157.127	-57.2987	57.336	-153.101	-32.3942	40.615	-160.461	-3.39566	57.4842	-184.264	-71.1503	96.4964	-189.526	-70.7591	125.924	-217.305	-61.86	110.321	
42	0.35	-240.618	-14.9797	112.791	-238.369	8.28058	90.991	-226.009	8.94348	62.3619	-207.426	-1.02308	50.8503	-241.847	-33.2402	42.9349	-225.829	-9.81208	27.6342	-218.561	2.756	58.9083	-220.789	-44.2163	34.2246	-205.65	-19.8964	23.7097	-204.997	-4.14276	59.0844	-201.744	-53.79	42.0305	-188.632	-27.7273	27.8742	-191.02	-8.21198	54.5352	-184.256	-59.0232	52.2865	-178.098	-36.1311	33.5936	-178.464	-7.14689	46.659	-210.02	-67.8867	96.2352	-209.865	-67.1409	124.812	-237.207	-53.0507	110.167	
43	0.358333	-244.646	13.4446	113.173	-233.615	30.9395	89.6428	-225.48	35.6479	64.2646	-208.893	16.2845	45.1516	-250.644	-3.83244	39.0731	-235.468	16.3712	22.9497	-218.044	24.9816	51.792	-238.826	-19.5286	34.4526	-219.188	4.36887	20.0737	-208.015	11.8074	52.5174	-225.412	-31.3884	33.9918	-207.286	-13.3768	20.8347	-195.34	3.70497	50.7201	-212.223	-41.8088	44.665	-196.978	-24.931	27.2627	-186.298	0.735574	39.7894	-235.03	-45.5781	88.034	-230.373	-50.4312	119.188	-254.614	-23.0878	107.852	
44	0.366667	-229.264	39.1955	113.463	-211.326	58.0263	88.5022	-204.753	58.325	56.8953	-202.338	33.545	44.245	-247.162	38.1836	40.5584	-224.536	44.3853	21.1473	-205.03	43.4646	51.9599	-245.198	19.5631	33.8347	-219.492	25.257	15.5402	-201.278	29.4475	49.3067	-238.123	-0.805373	29.6505	-214.567	7.84527	16.3958	-194.979	14.357	46.6895	-230.807	-17.4578	44.0731	-208.127	-5.9811	22.9952	-188.877	12.1255	41.074	-249.643	-12.0356	86.4945	-248.762	-14.1168	114.846	-257.896	18.1526	102.974	
45	0.375	-200.632	56.4561	110.783	-179.807	61.4139	84.5083	-175.713	58.4132	59.8316	-183.088	43.8445	40.5904	-221.673	68.4669	40.2435	-198.112	62.0422	22.1063	-183.515	50.7597	49.8109	-229.93	52.5273	30.4833	-204.204	40.5241	15.6928	-188.406	33.457	45.5946	-236.166	35.462	32.3564	-213.309	28.1985	14.7493	-192.287	20.617	45.0903	-239.05	13.7578	37.5751	-216.27	9.75414	20.0659	-189.645	11.2085	35.3709	-250.727	21.8148	86.0401	-249.523	20.8406	116.517	-237.522	51.1705	105.757	
46	0.383333	-173.994	57.5251	107.897	-152.627	52.0923	84.0945	-152.968	48.8815	56.9212	-171.982	36.9625	38.04	-190.456	77.7659	40.9512	-176.007	61.2958	19.3384	-168.943	41.5692	48.1845	-205.207	68.8918	30.8592	-186.279	46.6536	14.1711	-178.365	30.4726	43.6554	-224.693	51.6544	32.3819	-202.616	38.7398	13.416	-188.952	19.5369	39.3427	-232.553	37.2395	37.0627	-216.063	27.2268	19.1371	-192.29	12.4078	34.6297	-233.523	51.7218	85.6382	-234.933	43.396	116.383	-209.05	67.6256	105.443	
47	0.391667	-155.784	46.8428	109.412	-142.721	35.916	84.3729	-136.659	33.0545	53.8742	-155.36	27.0273	34.8826	-165.212	71.0568	37.147	-155.257	51.7815	20.0848	-152.686	30.2742	48.615	-185.164	66.3256	32.9334	-175.923	40.3021	13.2635	-168.264	22.1131	44.9906	-204.707	57.2126	28.8135	-190.823	37.0705	14.3538	-182.157	15.6182	41.6062	-217.976	45.9064	40.8515	-205.606	27.4527	20.6579	-187.305	9.133	39.8259	-215.887	58.6439	87.9484	-216.863	57.702	113.842	-186.916	70.3003	105.148	
48	0.4	-144.202	34.495	115.91	-130.789	17.8202	91.8338	-123.644	10.8476	61.9636	-147.654	9.51958	44.1759	-142.254	53.169	40.6076	-139.321	27.5705	24.1816	-143.148	11.3875	54.2927	-163.806	51.4716	33.0589	-155.341	22.3778	18.7344	-155.987	8.02387	52.912	-181.098	48.213	34.102	-177.898	20.0671	18.0603	-169.222	6.65319	49.5579	-201.244	40.9028	37.24	-189.289	16.4502	24.9034	-180.007	-1.40217	44.9358	-197.72	60.1107	86.7124	-200.075	59.0432	111.505	-170.308	63.4783	105.416	
49	0.408333	-128.234	24.6188	122.226	-119.52	4.32754	105.11	-113.936	-7.71089	79.1849	-132.394	-10.5907	56.1788	-120.533	29.3774	46.4447	-118.722	0.959374	39.0877	-126.796	-7.02494	68.5713	-138.923	30.4767	37.4359	-138.825	-0.192758	29.8245	-148.22	-7.79135	66.9587	-160.461	29.9717	35.3511	-156.031	-1.09016	29.3761	-159.514	-11.7054	61.0329	-178.471	27.9824	47.1466	-170.783	1.33818	34.0992	-168.509	-18.0638	62.6482	-175.205	54.5896	83.2676	-180.421	56.7653	112.849	-149.257	55.5325	106.262	
